<?xml version="1.0" encoding="UTF-8"?>
<svg width="512px" height="512px" viewBox="0 0 512 512" version="1.1" xmlns="http://www.w3.org/2000/svg" xmlns:xlink="http://www.w3.org/1999/xlink">
    <!-- Generator: Sketch 40.3 (33839) - http://www.bohemiancoding.com/sketch -->
    <title>Doc-the-Bot</title>
    <desc>your personal Virtual Doctor</desc>
    <defs/>
    <g id="Landing-Page-Artwork" stroke="none" stroke-width="1" fill="none" fill-rule="evenodd">
        <g id="hybrid" fill="#0B61FF">
            <path d="M213.333,285.867 C213.333,274.108 203.767,264.534 192,264.534 C180.233,264.534 170.667,274.108 170.667,285.867 C170.667,297.626 180.233,307.2 192,307.2 C203.767,307.2 213.333,297.626 213.333,285.867 L213.333,285.867 Z M192,290.133 C189.653,290.133 187.733,288.222 187.733,285.866 C187.733,283.511 189.653,281.599 192,281.599 C194.347,281.599 196.267,283.51 196.267,285.866 C196.267,288.222 194.347,290.133 192,290.133 L192,290.133 Z" id="Shape"/>
            <path d="M298.667,332.8 L213.334,332.8 C210.706,332.8 208.222,334.012 206.61,336.085 C204.989,338.15 204.417,340.855 205.057,343.407 C208.563,357.444 223.735,384 256,384 C288.265,384 303.437,357.444 306.944,343.407 C307.584,340.856 307.012,338.15 305.391,336.085 C303.778,334.012 301.295,332.8 298.667,332.8 L298.667,332.8 Z M256,366.933 C240.145,366.933 231.125,357.683 226.33,349.866 L285.662,349.866 C280.875,357.683 271.855,366.933 256,366.933 L256,366.933 Z" id="Shape"/>
            <path d="M463.497,452.702 C460.306,451.644 384.786,426.667 332.8,426.667 C329.02,426.667 325.632,429.338 324.565,432.973 C324.232,434.108 315.707,460.8 256,460.8 C196.292,460.8 187.767,434.108 187.477,433.126 C186.521,429.329 183.116,426.666 179.2,426.666 C127.215,426.666 51.695,451.643 48.503,452.701 C44.032,454.194 41.617,459.024 43.11,463.496 C43.187,463.743 51.2,487.961 51.2,503.466 C51.2,508.176 55.014,511.999 59.733,511.999 C64.452,511.999 68.266,508.176 68.266,503.466 C68.266,491.349 64.469,475.784 61.806,466.389 C81.578,460.313 134.305,445.184 173.695,443.827 C180.052,455.347 199.662,477.866 255.999,477.866 C312.336,477.866 331.946,455.347 338.303,443.827 C377.667,445.184 430.42,460.313 450.192,466.389 C447.53,475.793 443.732,491.349 443.732,503.466 C443.732,508.176 447.546,511.999 452.265,511.999 C456.984,511.999 460.798,508.176 460.798,503.466 C460.798,488.004 468.811,463.743 468.896,463.496 C470.383,459.025 467.968,454.195 463.497,452.702 L463.497,452.702 Z" id="Shape"/>
            <path d="M490.214,470.229 C486.007,468.121 480.887,469.836 478.762,474.052 C476.654,478.267 478.369,483.387 482.585,485.504 C494.404,491.409 494.916,502.886 494.933,503.552 C494.976,508.228 498.782,512 503.466,512 C508.185,512 511.999,508.177 511.999,503.467 C512,502.554 511.753,481.007 490.214,470.229 L490.214,470.229 Z" id="Shape"/>
            <path d="M230.4,204.8 L281.6,204.8 C295.714,204.8 307.2,193.314 307.2,179.2 L307.2,128 C307.2,113.886 295.714,102.4 281.6,102.4 L230.4,102.4 C216.286,102.4 204.8,113.886 204.8,128 L204.8,179.2 C204.8,193.314 216.286,204.8 230.4,204.8 L230.4,204.8 Z M221.867,128 C221.867,123.298 225.69,119.467 230.4,119.467 L281.6,119.467 C286.31,119.467 290.133,123.298 290.133,128 L290.133,179.2 C290.133,183.902 286.31,187.733 281.6,187.733 L230.4,187.733 C225.69,187.733 221.867,183.902 221.867,179.2 L221.867,128 L221.867,128 Z" id="Shape"/>
            <path d="M51.174,324.25 C52.676,324.25 54.203,323.857 55.586,323.021 C59.597,320.615 60.911,315.375 58.513,311.339 C58.359,311.074 42.667,283.87 42.667,221.867 C42.667,173.423 52.25,146.219 56.5,136.534 L74.94,136.534 C72.346,151.288 68.267,180.907 68.267,221.867 C68.267,280.721 76.681,316.254 77.039,317.739 C77.201,318.405 77.44,319.045 77.747,319.642 C112.862,387.661 177.826,426.667 256,426.667 C334.174,426.667 399.138,387.661 434.253,319.642 C434.56,319.045 434.799,318.405 434.961,317.739 C435.319,316.254 443.733,280.721 443.733,221.867 C443.733,180.907 439.654,151.288 437.06,136.534 L455.501,136.534 C459.768,146.262 469.334,173.458 469.334,221.867 C469.334,283.64 453.761,310.87 453.488,311.339 C451.064,315.358 452.353,320.581 456.364,323.021 C457.755,323.866 459.282,324.267 460.793,324.267 C463.677,324.267 466.485,322.808 468.089,320.171 C468.831,318.942 486.402,289.314 486.402,221.867 C486.402,154.428 468.832,124.792 468.089,123.563 C466.545,121.02 463.78,119.467 460.802,119.467 L431.737,119.467 C401.98,64.452 358.724,29.687 306.048,18.441 C302.933,7.825 293.214,0 281.6,0 L230.4,0 C218.786,0 209.067,7.825 205.952,18.441 C153.284,29.679 110.02,64.452 80.265,119.467 L51.2,119.467 C48.222,119.467 45.457,121.02 43.913,123.563 C43.17,124.791 25.6,154.428 25.6,221.867 C25.6,289.314 43.17,318.942 43.913,320.171 C45.517,322.807 48.307,324.25 51.174,324.25 L51.174,324.25 Z M221.867,25.6 C221.867,20.898 225.69,17.067 230.4,17.067 L281.6,17.067 C286.31,17.067 290.133,20.898 290.133,25.6 L290.133,59.733 C290.133,64.435 286.31,68.266 281.6,68.266 L230.4,68.266 C225.69,68.266 221.867,64.435 221.867,59.733 L221.867,25.6 L221.867,25.6 Z M93.414,130.953 C120.268,79.437 157.696,47.599 204.8,36.122 L204.8,59.734 C204.8,73.848 216.286,85.334 230.4,85.334 L281.6,85.334 C295.714,85.334 307.2,73.848 307.2,59.734 L307.2,36.122 C354.304,47.599 391.731,79.437 418.586,130.953 C419.892,136.918 426.667,170.428 426.667,221.867 C426.667,273.297 419.892,306.799 418.586,312.781 C386.398,374.332 327.202,409.6 256,409.6 C184.798,409.6 125.602,374.332 93.414,312.781 C92.108,306.799 85.333,273.297 85.333,221.867 C85.333,170.428 92.109,136.926 93.414,130.953 L93.414,130.953 Z" id="Shape"/>
            <path d="M107.375,287.369 C111.864,288.666 116.625,286.046 117.922,281.507 C118.05,281.055 131.379,236.494 182.861,236.494 C234.556,236.494 247.885,260.14 248.363,261.036 C249.788,263.886 252.715,265.644 255.898,265.695 C258.833,265.567 262.068,263.954 263.578,261.155 C264.116,260.139 277.445,236.494 329.14,236.494 C380.255,236.494 393.55,279.698 394.079,281.507 C395.154,285.253 398.568,287.702 402.28,287.702 C403.057,287.702 403.842,287.591 404.627,287.369 C409.158,286.072 411.786,281.353 410.489,276.813 C410.327,276.25 393.354,219.426 329.141,219.426 C287.652,219.426 266.097,233.532 256.002,243.575 C245.907,233.531 224.352,219.426 182.863,219.426 C118.65,219.426 101.677,276.249 101.515,276.813 C100.215,281.353 102.844,286.071 107.375,287.369 L107.375,287.369 Z" id="Shape"/>
            <path d="M21.786,470.229 C0.247,481.007 0,502.554 0,503.467 C0,508.177 3.814,512 8.533,512 C13.252,512 17.066,508.177 17.066,503.467 C17.066,503.348 17.211,491.606 29.414,485.504 C33.629,483.388 35.345,478.268 33.237,474.052 C31.121,469.837 26.001,468.122 21.786,470.229 L21.786,470.229 Z" id="Shape"/>
            <path d="M320,264.533 C308.233,264.533 298.667,274.107 298.667,285.866 C298.667,297.625 308.233,307.2 320,307.2 C331.768,307.2 341.333,297.626 341.333,285.867 C341.333,274.108 331.768,264.533 320,264.533 L320,264.533 Z M320,290.133 C317.653,290.133 315.733,288.222 315.733,285.866 C315.733,283.511 317.653,281.599 320,281.599 C322.347,281.599 324.267,283.51 324.267,285.866 C324.267,288.222 322.347,290.133 320,290.133 L320,290.133 Z" id="Shape"/>
        </g>
    </g>
</svg>